<?xml version="1.0" standalone="no"?><!-- Generator: Gravit.io --><svg xmlns="http://www.w3.org/2000/svg" xmlns:xlink="http://www.w3.org/1999/xlink" style="isolation:isolate" viewBox="0 0 207 78" width="207" height="78"><defs><clipPath id="_clipPath_WH0uBHfc6Ti4SuTzRjZ7Dagw8gEBa0fi"><rect width="207" height="78"/></clipPath></defs><g clip-path="url(#_clipPath_WH0uBHfc6Ti4SuTzRjZ7Dagw8gEBa0fi)"><path d=" M 16.2 24.1 C 15.8 24.1 15.7 23.9 15.9 23.6 L 18 20.9 C 18.2 20.6 18.7 20.4 19.1 20.4 L 54.8 20.4 C 55.2 20.4 55.3 20.7 55.1 21 L 53.4 23.6 C 53.2 23.9 52.7 24.2 52.4 24.2 L 16.2 24.1 L 16.2 24.1 Z  M 1.1 33.3 C 0.7 33.3 0.6 33.1 0.8 32.8 L 2.9 30.1 C 3.1 29.8 3.6 29.6 4 29.6 L 49.6 29.6 C 50 29.6 50.2 29.9 50.1 30.2 L 49.3 32.6 C 49.2 33 48.8 33.2 48.4 33.2 L 1.1 33.3 L 1.1 33.3 Z  M 25.3 42.5 C 24.9 42.5 24.8 42.2 25 41.9 L 26.4 39.4 C 26.6 39.1 27 38.8 27.4 38.8 L 47.4 38.8 C 47.8 38.8 48 39.1 48 39.5 L 47.8 41.9 C 47.8 42.3 47.4 42.6 47.1 42.6 L 25.3 42.5 L 25.3 42.5 Z  M 129.1 22.3 C 122.8 23.9 118.5 25.1 112.3 26.7 C 110.8 27.1 110.7 27.2 109.4 25.7 C 107.9 24 106.8 22.9 104.7 21.9 C 98.4 18.8 92.3 19.7 86.6 23.4 C 79.8 27.8 76.3 34.3 76.4 42.4 C 76.5 50.4 82 57 89.9 58.1 C 96.7 59 102.4 56.6 106.9 51.5 C 107.8 50.4 108.6 49.2 109.6 47.8 L 90.3 47.8 C 88.2 47.8 87.7 46.5 88.4 44.8 C 89.7 41.7 92.1 36.5 93.5 33.9 C 93.8 33.3 94.5 32.3 96 32.3 L 132.4 32.3 C 132.2 35 132.2 37.7 131.8 40.4 C 130.7 47.6 128 54.2 123.6 60 C 116.4 69.5 107 75.4 95.1 77 C 85.3 78.3 76.2 76.4 68.2 70.4 C 60.8 64.8 56.6 57.4 55.5 48.2 C 54.2 37.3 57.4 27.5 64 18.9 C 71.1 9.6 80.5 3.7 92 1.6 C 101.4 -0.1 110.4 1 118.5 6.5 C 123.8 10 127.6 14.8 130.1 20.6 C 130.7 21.5 130.3 22 129.1 22.3 Z " fill="rgb(134,142,150)"/><path d=" M 162.2 77.6 C 153.1 77.4 144.8 74.8 137.8 68.8 C 131.9 63.7 128.2 57.2 127 49.5 C 125.2 38.2 128.3 28.2 135.1 19.3 C 142.4 9.7 151.2 4.7 163.1 2.6 C 173.3 0.8 182.9 1.8 191.6 7.7 C 199.5 13.1 204.4 20.4 205.7 30 C 207.4 43.5 203.5 54.5 194.2 63.9 C 187.6 70.6 179.5 74.8 170.2 76.7 C 167.5 77.2 164.8 77.3 162.2 77.6 L 162.2 77.6 Z  M 186 37.2 C 185.9 35.9 185.9 34.9 185.7 33.9 C 183.9 24 174.8 18.4 165.3 20.6 C 156 22.7 150 28.6 147.8 38 C 146 45.8 149.8 53.7 157 56.9 C 162.5 59.3 168 59 173.3 56.3 C 181.2 52.2 185.5 45.8 186 37.2 L 186 37.2 Z " fill="rgb(134,142,150)"/></g></svg>