<?xml version="1.0" standalone="no"?><!-- Generator: Gravit.io --><svg xmlns="http://www.w3.org/2000/svg" xmlns:xlink="http://www.w3.org/1999/xlink" style="isolation:isolate" viewBox="0 0 320 320" width="320" height="320"><defs><clipPath id="_clipPath_S6Oz1e2WOYvtMPCcBSpotDhRW0QZpZtF"><rect width="320" height="320"/></clipPath></defs><g clip-path="url(#_clipPath_S6Oz1e2WOYvtMPCcBSpotDhRW0QZpZtF)"><rect width="320" height="320" style="fill:rgb(0,0,0)" fill-opacity="0"/><path d=" M 77.761 229.406 C 77.761 228.841 77.573 228.276 77.573 227.146 C 77.384 226.58 77.384 226.204 77.384 225.639 L 75.312 225.827 L 74.747 225.827 C 69.284 226.015 63.067 225.639 57.038 224.697 C 51.01 223.755 45.17 222.059 40.649 219.987 C 31.418 215.654 23.694 209.626 20.115 204.728 C 18.042 201.713 16.724 198.511 16.535 195.308 C 16.158 189.091 18.796 184.193 24.824 181.179 C 28.404 179.484 33.113 179.107 39.33 180.237 C 47.242 181.933 52.329 183.063 55.531 183.817 C 41.402 160.268 30.853 134.836 24.636 112.418 C 15.97 81.334 15.97 54.395 25.201 42.527 C 39.33 24.63 56.662 15.587 73.616 11.631 C 98.483 5.791 123.162 11.066 133.712 14.08 C 136.726 13.515 139.74 13.138 142.754 12.762 C 147.087 12.385 151.42 12.008 155.941 12.008 C 164.607 11.82 172.331 12.95 179.49 15.022 C 184.765 16.529 189.663 18.79 193.996 21.239 C 219.805 12.385 314.563 -12.671 309.288 92.638 C 308.723 105.259 298.739 156.312 283.856 191.729 C 278.77 203.974 272.741 214.524 266.336 221.871 C 257.293 231.855 246.932 236.377 235.064 232.044 C 231.861 230.913 228.847 229.218 225.833 226.58 C 225.268 227.146 224.703 227.711 224.137 228.276 C 220.558 231.667 214.906 234.304 210.197 235.435 C 204.734 236.753 195.691 238.449 185.706 236.753 C 181.939 236.188 178.171 235.058 174.215 233.362 C 174.403 235.058 174.403 236.753 174.403 238.637 C 174.215 241.275 174.215 243.912 174.215 245.796 C 174.026 252.201 173.65 258.606 172.896 264.635 C 172.143 271.04 171.012 276.691 169.505 281.401 C 169.317 281.966 169.128 282.531 168.752 283.285 C 164.984 295.153 158.014 316.441 125.046 309.282 C 112.236 306.456 100.932 303.065 91.702 290.067 C 83.601 278.952 78.514 260.867 77.761 229.406 L 77.761 229.406 Z " fill="rgb(134,142,150)"/><path d=" M 90.76 207.177 C 91.513 191.164 83.601 188.338 78.138 186.642 C 78.703 185.889 79.456 184.759 80.398 183.628 C 83.224 180.237 86.803 175.716 89.629 168.746 C 90.006 167.615 91.325 165.355 93.02 162.341 C 100.367 149.342 114.685 123.533 111.859 106.013 C 109.787 93.391 100.367 85.102 76.442 87.739 C 76.442 87.551 76.631 87.174 76.631 86.986 C 77.761 83.783 79.645 79.45 82.282 74.741 C 92.643 55.714 115.438 29.34 155.753 28.586 C 204.545 27.833 213.399 76.248 214.906 96.594 C 212.646 95.275 210.197 93.956 207.559 92.826 C 203.415 91.13 198.894 89.812 194.184 89.058 C 189.286 88.305 184.388 88.493 180.055 89.812 C 173.085 91.884 167.621 97.159 165.549 106.767 C 158.014 141.618 164.796 156.689 170.07 168.369 C 173.838 176.846 172.331 173.267 174.78 180.049 C 175.722 182.498 176.476 184.947 177.041 187.019 C 176.476 186.831 175.91 186.831 175.345 186.642 C 172.143 186.266 168.375 187.584 165.926 189.468 C 163.1 191.541 160.839 194.555 159.709 198.134 C 158.579 201.337 158.767 204.351 158.767 207.742 C 159.144 223.378 158.956 238.826 158.39 251.447 C 157.825 264.069 156.695 273.3 155.376 276.88 C 153.869 280.459 151.608 285.922 147.087 289.69 C 142.754 293.269 136.161 295.53 125.611 293.269 C 116.38 291.197 110.163 288.371 106.019 284.227 C 101.874 279.894 99.614 273.865 98.107 265.576 C 97.165 259.36 95.658 248.622 94.339 238.072 C 92.643 225.262 91.325 211.886 90.76 207.177 L 90.76 207.177 Z  M 205.299 214.712 C 189.286 211.321 187.59 209.437 182.504 202.844 C 180.62 200.395 178.736 198.322 176.476 196.062 C 175.722 195.308 175.157 195.308 174.592 195.12 C 173.461 194.931 171.766 195.685 170.824 196.439 C 169.505 197.381 168.375 199.076 167.621 200.96 C 167.056 202.844 166.679 205.293 167.998 206.988 C 174.026 215.277 181.374 218.857 188.156 219.987 C 195.126 221.117 201.719 219.987 205.675 219.045 C 207.559 218.48 209.82 217.538 211.327 216.596 C 210.197 216.031 208.313 215.277 205.299 214.712 L 205.299 214.712 Z  M 210.008 184.193 C 211.327 183.063 212.457 181.933 213.776 180.614 C 219.805 174.021 223.949 165.166 224.891 155.37 C 225.268 151.791 225.268 148.212 224.703 144.632 C 222.63 129.938 223.384 116.751 223.949 109.781 C 224.137 107.897 224.137 106.578 224.137 105.448 C 224.137 105.071 225.268 60.989 200.212 36.31 C 222.819 28.774 296.289 10.878 292.333 91.507 C 291.768 103.187 282.349 151.414 268.22 184.947 C 263.699 195.497 258.801 204.539 253.714 210.379 C 249.381 215.277 244.86 217.538 240.715 216.031 C 238.455 215.277 235.817 213.205 233.18 210.002 C 223.195 198.322 214.153 188.715 210.008 184.193 L 210.008 184.193 Z  M 120.336 27.644 C 97.353 37.817 82.847 56.279 74.935 70.596 C 72.109 75.683 70.037 80.392 68.718 83.972 C 67.211 88.116 66.646 91.319 67.023 92.638 C 67.023 92.826 67.023 93.014 67.023 93.014 C 66.834 99.043 67.588 103.941 68.342 109.027 C 68.907 112.983 69.472 117.128 69.849 122.026 C 70.037 126.736 69.472 131.634 68.718 136.532 C 67.211 149.53 65.516 163.283 74.182 177.412 C 73.993 177.6 73.805 177.788 73.805 177.977 C 73.428 178.353 73.051 178.919 72.863 179.295 C 57.792 155.747 46.865 129.75 40.649 107.143 C 33.49 80.958 32.36 59.67 38.2 52.134 C 48.561 38.947 60.994 31.789 73.616 28.209 C 91.513 23.5 109.41 25.383 120.336 27.644 L 120.336 27.644 Z  M 215.472 105.448 C 215.472 106.767 215.283 107.897 215.283 109.216 C 214.906 116.374 213.965 129.938 216.225 145.574 C 216.602 148.588 216.79 151.603 216.414 154.428 C 215.66 162.341 212.457 169.499 207.371 174.774 C 202.473 180.049 196.068 183.628 189.097 184.759 C 187.779 184.947 186.46 184.947 185.33 185.135 C 184.765 182.498 183.823 179.861 182.692 177.035 C 181.374 173.267 180.808 171.572 177.794 164.978 C 173.085 154.428 166.868 140.865 173.838 108.462 C 175.157 102.245 178.548 99.043 182.504 97.724 C 185.518 96.782 189.097 96.782 192.865 97.347 C 196.821 97.912 200.777 99.231 204.357 100.55 C 210.762 103.187 215.472 105.259 215.472 105.448 L 215.472 105.448 Z  M 190.416 102.057 C 187.214 101.303 183.069 102.057 180.243 103.564 C 178.548 104.506 177.794 105.636 177.983 106.955 L 177.983 106.955 L 177.983 106.955 L 177.983 106.955 L 177.983 106.955 C 178.171 107.897 179.113 109.404 180.808 110.534 C 182.316 111.476 184.199 112.23 186.46 112.041 L 186.46 112.041 L 186.46 112.041 L 186.46 112.041 L 186.46 112.041 C 188.532 111.665 190.416 110.534 191.735 109.216 C 193.054 107.897 193.807 106.39 193.807 105.071 C 193.619 103.564 192.677 102.622 190.416 102.057 L 190.416 102.057 Z  M 75.689 96.217 C 95.092 93.768 102.44 99.043 103.758 107.332 C 106.019 122.026 92.643 146.139 85.862 158.384 C 83.978 161.587 82.659 164.224 82.094 165.732 C 81.34 167.427 80.587 168.934 79.833 170.253 C 74.747 159.515 76.065 148.4 77.384 138.039 C 77.949 132.575 78.703 127.301 78.514 122.214 C 78.326 116.939 77.573 112.418 77.007 108.274 C 76.254 104.129 75.689 100.361 75.689 96.217 L 75.689 96.217 Z  M 73.24 193.99 C 73.805 194.178 74.558 194.366 75.312 194.555 C 78.326 195.308 82.847 196.627 82.471 206.8 C 82.094 207.177 80.775 207.553 78.891 207.93 C 75.877 208.495 71.921 208.684 67.776 208.495 C 60.429 208.119 52.705 206.423 47.619 204.162 C 42.533 201.713 38.2 198.888 35.562 196.439 C 46.489 198.322 63.255 201.525 73.24 193.99 L 73.24 193.99 Z  M 83.412 102.057 L 83.412 102.057 L 83.412 102.057 C 83.224 102.999 83.978 104.506 85.296 105.636 C 86.803 107.143 88.499 108.085 90.383 108.274 C 91.89 108.462 93.209 108.085 94.716 107.332 C 96.411 106.39 97.73 105.071 97.73 103.752 C 97.73 102.81 97.165 101.868 95.846 101.115 C 94.716 100.55 93.02 99.985 91.136 99.608 C 89.252 99.419 87.557 99.419 86.238 99.796 C 84.543 100.173 83.601 100.927 83.412 102.057 L 83.412 102.057 Z  M 68.153 187.961 C 66.269 189.845 59.676 192.671 37.446 188.15 C 33.113 187.208 30.099 187.396 28.215 188.338 C 25.766 189.468 24.636 191.541 24.824 194.178 C 25.013 195.873 25.578 197.381 26.897 199.076 C 29.722 203.032 36.127 207.93 44.228 211.698 C 50.068 214.524 59.111 216.219 67.4 216.784 C 72.298 216.973 76.819 216.784 80.587 216.031 C 81.529 215.842 82.471 215.654 83.224 215.277 C 83.978 221.494 84.92 230.16 86.05 239.014 C 87.369 250.129 88.876 261.055 90.006 266.895 C 91.702 277.068 94.716 284.415 100.179 290.067 C 105.642 295.718 113.178 299.298 124.104 301.558 C 137.856 304.573 146.71 301.182 152.739 296.095 C 158.767 291.009 161.593 284.415 163.288 279.894 C 165.172 275.373 166.303 265.011 166.868 251.824 C 167.245 242.028 167.433 230.725 167.433 218.668 C 173.65 224.32 180.432 226.957 186.837 228.088 C 195.314 229.595 203.226 228.088 207.936 226.957 C 211.327 226.015 215.66 224.131 218.109 221.871 C 219.616 220.552 220.558 218.857 220.935 216.973 C 221.312 214.9 220.558 212.64 218.674 210.944 C 216.79 209.06 213.211 207.553 207.371 206.235 C 194.372 203.597 193.242 202.09 189.474 197.381 C 188.532 196.25 187.59 194.931 186.46 193.801 C 186.46 193.613 186.46 193.424 186.46 193.236 C 187.967 193.236 189.286 193.048 190.605 192.859 C 195.126 192.294 199.27 190.787 203.226 188.715 C 206.806 192.482 216.225 202.655 226.398 215.089 C 229.977 219.61 233.934 222.248 237.701 223.566 C 245.802 226.392 253.149 223.001 259.931 215.654 C 265.771 209.06 271.234 199.264 275.944 187.961 C 290.45 153.486 300.057 103.941 300.622 91.696 C 305.52 -8.149 208.125 24.065 192.488 29.716 C 183.257 23.5 171.389 19.543 155.941 19.732 C 148.406 19.92 141.436 20.674 135.03 22.369 C 132.016 21.616 127.683 20.297 127.307 20.297 C 126.741 20.109 125.988 19.92 125.234 19.732 C 113.743 17.094 92.832 14.08 71.544 20.109 C 57.415 24.065 43.475 32.165 31.795 46.86 C 24.259 56.656 24.824 80.769 32.736 109.404 C 39.33 134.459 51.575 162.717 68.153 187.961 L 68.153 187.961 Z " fill="rgb(255,255,255)"/></g></svg>