<?xml version="1.0" standalone="no"?><!-- Generator: Gravit.io --><svg xmlns="http://www.w3.org/2000/svg" xmlns:xlink="http://www.w3.org/1999/xlink" style="isolation:isolate" viewBox="0 0 2362 2500" width="2362" height="2500"><defs><clipPath id="_clipPath_Xu6xbhIOI0nJzIX4ZvZPFjB9AaNWLOtQ"><rect width="2362" height="2500"/></clipPath></defs><g clip-path="url(#_clipPath_Xu6xbhIOI0nJzIX4ZvZPFjB9AaNWLOtQ)"><path d=" M 2264.2 1001.4 L 1479.2 1001.4 C 1439.8 1001.4 1407.9 969.5 1407.8 930.1 L 1407.8 111.9 C 1407.9 51.3 1358.8 2.2 1298.2 2.2 L 1018 2.2 C 957.4 2.2 908.3 51.3 908.3 111.9 L 908.3 925 C 908.3 967.2 874.2 1001.5 832 1001.7 L 574.8 1002.9 C 532.3 1003.1 497.7 968.6 497.8 926.1 L 499.4 112.1 C 499.5 51.4 450.3 2.2 389.7 2.2 L 109.7 2.2 C 49.1 2.2 0 51.3 0 111.9 L 0 2402.6 C 0 2456.4 43.6 2500 97.4 2500 L 2264.2 2500 C 2318 2500 2361.6 2456.4 2361.6 2402.6 L 2361.6 1098.8 C 2361.6 1044.9 2318 1001.4 2264.2 1001.4 Z  M 1896.1 1861.4 C 1896.1 1931.9 1838.9 1989.1 1768.4 1989.1 L 1547 1989.1 C 1476.5 1989.1 1419.3 1931.9 1419.3 1861.4 L 1419.3 1640 C 1419.3 1569.5 1476.5 1512.3 1547 1512.3 L 1768.4 1512.3 C 1838.9 1512.3 1896.1 1569.5 1896.1 1640 L 1896.1 1861.4 L 1896.1 1861.4 Z " fill="rgb(134,142,150)"/></g></svg>